<svg xmlns="http://www.w3.org/2000/svg" xmlns:xlink="http://www.w3.org/1999/xlink" width="50" height="50" viewBox="0 0 50 50">
  <defs>
    <clipPath id="clip-path">
      <rect id="Rectangle_1904" data-name="Rectangle 1904" width="50" height="50" fill="#f3f3f3"/>
    </clipPath>
  </defs>
  <g id="Mask_Group_73" data-name="Mask Group 73" clip-path="url(#clip-path)">
    <g id="right-quote-sign" transform="translate(0 2.933)">
      <path id="Path_763" data-name="Path 763" d="M75.958,5.866H60.369A2.565,2.565,0,0,0,57.8,8.43V24.019a2.565,2.565,0,0,0,2.564,2.564H67.83q-.146,6.123-2.841,9.8a15.447,15.447,0,0,1-6.425,4.81,2.56,2.56,0,0,0-1.272,3.441l1.846,3.9a2.564,2.564,0,0,0,3.338,1.251,28.507,28.507,0,0,0,8.6-5.579,21.648,21.648,0,0,0,5.861-9.328q1.585-5.2,1.585-14.194V8.43A2.565,2.565,0,0,0,75.958,5.866Z" transform="translate(-28.522 -5.866)" fill="#f3f3f3"/>
      <path id="Path_764" data-name="Path 764" d="M5.437,49.777A28.987,28.987,0,0,0,14,44.208a21.533,21.533,0,0,0,5.9-9.292q1.585-5.161,1.585-14.23V8.43a2.565,2.565,0,0,0-2.564-2.564H3.325A2.565,2.565,0,0,0,.761,8.43V24.019a2.565,2.565,0,0,0,2.564,2.564h7.461q-.146,6.123-2.841,9.8A15.447,15.447,0,0,1,1.52,41.2,2.56,2.56,0,0,0,.248,44.639l1.841,3.887A2.571,2.571,0,0,0,5.437,49.777Z" transform="translate(0 -5.866)" fill="#f3f3f3"/>
    </g>
  </g>
</svg>
