<svg xmlns="http://www.w3.org/2000/svg" width="30" height="30">
    <defs>
        <clipPath id="clip-path">
            <path id="Rectangle_6249" data-name="Rectangle 6249" transform="translate(887 64)" style="stroke:#707070;fill:#008a20" d="M0 0h30v30H0z"/>
        </clipPath>
        <style>
            .cls-3{fill:#008a20}
        </style>
    </defs>
    <g id="Mask_Group_80" data-name="Mask Group 80" transform="translate(-887 -64)" style="clip-path:url(#clip-path)">
        <g id="free-delivery" transform="translate(887 64.006)">
            <g id="Group_14331" data-name="Group 14331">
                <g id="Group_14330" data-name="Group 14330">
                    <path id="Path_14424" data-name="Path 14424" class="cls-3" d="m27.9 16.811-.779-3.105a.471.471 0 0 0 .369-.457v-.5a1.976 1.976 0 0 0-1.975-1.975h-3.536V9.738a.974.974 0 0 0-.973-.973h-6.574l4-1.6a.47.47 0 0 0-.346-.873L14.807 7.6a10.853 10.853 0 0 0 2.361-1.84 2.186 2.186 0 0 0-3.475-2.654A18.865 18.865 0 0 0 12 7.166a19.167 19.167 0 0 0-1.693-4.061A2.186 2.186 0 0 0 6.832 5.76 11.227 11.227 0 0 0 9.193 7.6L5.918 6.293a.47.47 0 1 0-.346.873l4 1.6H2.977A.974.974 0 0 0 2 9.738v8.52a.469.469 0 0 0 .938 0v-8.52a.028.028 0 0 1 .029-.029h18.039a.028.028 0 0 1 .029.029v8.52a.469.469 0 0 0 .938 0v-.533h5.543a1.534 1.534 0 0 1 1.459 1.066h-1.459a.47.47 0 0 0-.469.469v1a1.472 1.472 0 0 0 1.471 1.471h.533V23.8H27.82a2.976 2.976 0 0 0-5.625 0h-.229v-3.538a.469.469 0 0 0-.937 0V23.8H11.3a2.976 2.976 0 0 0-5.625 0h-2.7a.028.028 0 0 1-.029-.029v-1.037H4.98a.469.469 0 0 0 0-.937H.469a.469.469 0 0 0 0 .938H2v1.031a.974.974 0 0 0 .973.973h2.541v.029a2.977 2.977 0 0 0 5.953 0v-.029h10.588v.029a2.977 2.977 0 1 0 5.953 0v-.029h1.523A.47.47 0 0 0 30 24.27v-5.01a2.484 2.484 0 0 0-2.1-2.449zM10.131 7.1a11.21 11.21 0 0 1-2.567-1.9 1.25 1.25 0 1 1 1.987-1.514 20.362 20.362 0 0 1 1.635 4.049c-.317-.188-.68-.411-1.055-.635zm2.672.633a20.725 20.725 0 0 1 1.635-4.053 1.25 1.25 0 1 1 1.986 1.52 11.008 11.008 0 0 1-2.567 1.89c-.375.234-.738.457-1.057.639zm9.182 3.984h3.539a1.033 1.033 0 0 1 1.031 1.031v.029h-4.57zm0 5.074v-3.07h4.172l.768 3.07zm-13.5 10.02a2.033 2.033 0 1 1 2.033-2.033 2.034 2.034 0 0 1-2.034 2.029zm16.535 0a2.036 2.036 0 1 1 2.033-2.039 2.034 2.034 0 0 1-2.033 2.035zm4.043-6.012h-.533a.535.535 0 0 1-.53-.537v-.533h1.066v1.066z"/>
                </g>
            </g>
            <g id="Group_14333" data-name="Group 14333">
                <g id="Group_14332" data-name="Group 14332">
                    <path id="Path_14425" data-name="Path 14425" class="cls-3" d="M8.484 23.8a.973.973 0 1 0 .973.973.974.974 0 0 0-.973-.973z"/>
                </g>
            </g>
            <g id="Group_14335" data-name="Group 14335">
                <g id="Group_14334" data-name="Group 14334">
                    <path id="Path_14426" data-name="Path 14426" class="cls-3" d="M25.02 23.8a.973.973 0 1 0 .973.973.974.974 0 0 0-.973-.973z"/>
                </g>
            </g>
            <g id="Group_14337" data-name="Group 14337">
                <g id="Group_14336" data-name="Group 14336">
                    <path id="Path_14427" data-name="Path 14427" class="cls-3" d="M19.512 21.8h-7.02a.469.469 0 0 0 0 .938h7.02a.469.469 0 0 0 0-.937z"/>
                </g>
            </g>
            <g id="Group_14339" data-name="Group 14339">
                <g id="Group_14338" data-name="Group 14338">
                    <path id="Path_14428" data-name="Path 14428" class="cls-3" d="M7.482 19.793H1.471a.469.469 0 0 0 0 .938h6.011a.469.469 0 0 0 0-.937z"/>
                </g>
            </g>
            <g id="Group_14340" data-name="Group 14340">
                <path id="Path_14429" data-name="Path 14429" class="cls-3" d="M8.924 17.027a3.011 3.011 0 0 1-1.225.211 2.237 2.237 0 0 1-2.42-2.385 2.384 2.384 0 0 1 2.531-2.5 2.7 2.7 0 0 1 1.154.211l-.187.691a2.268 2.268 0 0 0-.926-.182 1.579 1.579 0 0 0-1.658 1.746 1.555 1.555 0 0 0 1.652 1.711 2.44 2.44 0 0 0 .943-.176z"/>
                <path id="Path_14430" data-name="Path 14430" class="cls-3" d="M13.682 14.748a2.24 2.24 0 0 1-2.273 2.5 2.191 2.191 0 0 1-2.18-2.414 2.272 2.272 0 0 1 2.25-2.484 2.2 2.2 0 0 1 2.203 2.398zm-3.533.07c0 .961.486 1.729 1.312 1.729s1.307-.773 1.307-1.764c0-.891-.445-1.734-1.307-1.734s-1.313.791-1.313 1.769z"/>
                <path id="Path_14431" data-name="Path 14431" class="cls-3" d="M14.426 12.492a8.608 8.608 0 0 1 1.377-.1 2.864 2.864 0 0 1 1.934.551 2.128 2.128 0 0 1 .738 1.746 2.458 2.458 0 0 1-.738 1.887 3.168 3.168 0 0 1-2.145.645 9.409 9.409 0 0 1-1.166-.064v-4.665zm.867 4.014a2.918 2.918 0 0 0 .48.023 1.623 1.623 0 0 0 1.793-1.816 1.5 1.5 0 0 0-1.682-1.646 3.207 3.207 0 0 0-.592.047z"/>
            </g>
        </g>
    </g>
</svg>
