<svg xmlns="http://www.w3.org/2000/svg" width="30" height="30">
    <defs>
        <clipPath id="clip-path">
            <path id="Rectangle_6246" data-name="Rectangle 6246" transform="translate(967 32)" style="stroke:#707070;fill:#bf1616" d="M0 0h30v30H0z"/>
        </clipPath>
        <style>
            .cls-3{fill:#bf1616}
        </style>
    </defs>
    <g id="Mask_Group_78" data-name="Mask Group 78" transform="translate(-967 -32)" style="clip-path:url(#clip-path)">
        <g id="telephone" transform="translate(967 32)">
            <g id="Group_14326" data-name="Group 14326">
                <path id="Path_14421" data-name="Path 14421" class="cls-3" d="M22.808 21.286a2.1 2.1 0 0 0-3.178 0c-.743.737-1.486 1.473-2.216 2.222a.438.438 0 0 1-.612.112c-.481-.262-.993-.474-1.455-.762A23.046 23.046 0 0 1 9.792 17.8 13.163 13.163 0 0 1 7.8 14.612a.457.457 0 0 1 .112-.587c.743-.718 1.467-1.455 2.2-2.191a2.11 2.11 0 0 0-.012-3.252c-.581-.587-1.161-1.161-1.742-1.748-.6-.6-1.192-1.2-1.8-1.8a2.115 2.115 0 0 0-3.178.006c-.749.737-1.467 1.492-2.229 2.216A3.618 3.618 0 0 0 .022 9.7a10.342 10.342 0 0 0 .8 4.451 27.047 27.047 0 0 0 4.8 8 29.708 29.708 0 0 0 9.839 7.7 14.229 14.229 0 0 0 5.45 1.586 3.994 3.994 0 0 0 3.427-1.3c.637-.712 1.355-1.361 2.029-2.041a2.124 2.124 0 0 0 .012-3.234q-1.779-1.8-3.571-3.576z" transform="translate(-.001 -1.44)"/>
                <path id="Path_14422" data-name="Path 14422" class="cls-3" d="m29.04 17.867 2.3-.393A10.34 10.34 0 0 0 22.6 8.99l-.325 2.316a7.991 7.991 0 0 1 6.767 6.561z" transform="translate(-7.425 -2.997)"/>
                <path id="Path_14423" data-name="Path 14423" class="cls-3" d="M32.795 4.857A16.986 16.986 0 0 0 23.056 0l-.325 2.316a14.821 14.821 0 0 1 12.542 12.155l2.3-.393a17.11 17.11 0 0 0-4.778-9.221z" transform="translate(-7.578)"/>
            </g>
        </g>
    </g>
</svg>
