<svg xmlns="http://www.w3.org/2000/svg" width="20" height="20">
    <defs>
        <clipPath id="clip-path">
            <path id="Rectangle_1871" data-name="Rectangle 1871" style="stroke:#6b6f75;fill:#fff" d="M0 0h20v20H0z"/>
        </clipPath>
        <style>
            .cls-3{fill:#fff}
        </style>
    </defs>
    <g id="Mask_Group_67" data-name="Mask Group 67" style="clip-path:url(#clip-path)">
        <g id="linkedin">
            <path id="Path_717" data-name="Path 717" class="cls-3" d="M19.995 20H20v-7.336c0-3.588-.772-6.352-4.967-6.352a4.355 4.355 0 0 0-3.923 2.155h-.058v-1.82H7.074V20h4.142v-6.613c0-1.741.33-3.424 2.486-3.424 2.124 0 2.156 1.987 2.156 3.536V20z"/>
            <path id="Path_718" data-name="Path 718" class="cls-3" d="M.33 6.647h4.147V20H.33z"/>
            <path id="Path_719" data-name="Path 719" class="cls-3" d="M2.4 0a2.413 2.413 0 1 0 2.4 2.4A2.4 2.4 0 0 0 2.4 0z"/>
        </g>
    </g>
</svg>
