<svg xmlns="http://www.w3.org/2000/svg" width="69.998" height="70">
    <defs>
        <style>
            .cls-1{fill:#01d292}
        </style>
    </defs>
    <g id="Group_14314" data-name="Group 14314" transform="translate(-.001)">
        <path id="Path_14419" data-name="Path 14419" class="cls-1" d="m25.707 46 24-24.146-1.414-1.488L25 43.623 13.707 32.312l-1.414 1.551 12 12.137z" transform="translate(2.774 3.185)"/>
        <path id="Path_14420" data-name="Path 14420" class="cls-1" d="M35 70a35 35 0 0 0 24.748-59.749A34.768 34.768 0 0 0 35 0a35 35 0 0 0-24.748 59.749A34.768 34.768 0 0 0 35 70zM11.8 11.8A32.6 32.6 0 0 1 35 2.188 32.814 32.814 0 0 1 58.2 58.2 32.6 32.6 0 0 1 35 67.813 32.813 32.813 0 0 1 11.8 11.8z"/>
    </g>
</svg>
