<svg xmlns="http://www.w3.org/2000/svg" width="14" height="14">
    <defs>
        <clipPath id="a">
            <path data-name="Rectangle 118" transform="translate(599 622)" style="stroke:#707070;fill:#2372d9" d="M0 0h14v14H0z"/>
        </clipPath>
    </defs>
    <g data-name="Mask Group 23" transform="translate(-599 -622)" style="clip-path:url(#a)">
        <path data-name="Path 123" d="M5.642 13.658a.946.946 0 0 0 1.57-.414C7.888 8.77 11.267 5 13.825 1.441 14.534.455 12.9-.481 12.2.493 9.866 3.742 6.92 7.161 5.768 11.1a46.5 46.5 0 0 0-4.117-3.858c-.935-.75-2.273.57-1.328 1.328a63.8 63.8 0 0 1 5.319 5.088z" style="fill:#2372d9" transform="translate(599 622)"/>
    </g>
</svg>
